# Exported from Abaqus INP
# translation: 0.0, 0.0, 0.0
v 0.000000000 0.000000000 50.000000000
v 0.000000000 50.000000000 50.000000000
v 0.000000000 50.000000000 0.000000000
v 0.000000000 0.000000000 0.000000000
v 50.000000000 50.000000000 50.000000000
v 50.000000000 50.000000000 0.000000000
v 50.000000000 0.000000000 50.000000000
v 50.000000000 0.000000000 0.000000000
v 0.000000000 5.000000000 50.000000000
v 0.000000000 10.000000000 50.000000000
v 0.000000000 15.000000000 50.000000000
v 0.000000000 20.000000000 50.000000000
v 0.000000000 25.000000000 50.000000000
v 0.000000000 30.000000000 50.000000000
v 0.000000000 35.000000000 50.000000000
v 0.000000000 40.000000000 50.000000000
v 0.000000000 45.000000000 50.000000000
v 0.000000000 50.000000000 45.000000000
v 0.000000000 50.000000000 40.000000000
v 0.000000000 50.000000000 35.000000000
v 0.000000000 50.000000000 30.000000000
v 0.000000000 50.000000000 25.000000000
v 0.000000000 50.000000000 20.000000000
v 0.000000000 50.000000000 15.000000000
v 0.000000000 50.000000000 10.000000000
v 0.000000000 50.000000000 5.000000000
v 0.000000000 45.000000000 0.000000000
v 0.000000000 40.000000000 0.000000000
v 0.000000000 35.000000000 0.000000000
v 0.000000000 30.000000000 0.000000000
v 0.000000000 25.000000000 0.000000000
v 0.000000000 20.000000000 0.000000000
v 0.000000000 15.000000000 0.000000000
v 0.000000000 10.000000000 0.000000000
v 0.000000000 5.000000000 0.000000000
v 0.000000000 0.000000000 5.000000000
v 0.000000000 0.000000000 10.000000000
v 0.000000000 0.000000000 15.000000000
v 0.000000000 0.000000000 20.000000000
v 0.000000000 0.000000000 25.000000000
v 0.000000000 0.000000000 30.000000000
v 0.000000000 0.000000000 35.000000000
v 0.000000000 0.000000000 40.000000000
v 0.000000000 0.000000000 45.000000000
v 5.000000000 50.000000000 50.000000000
v 10.000000000 50.000000000 50.000000000
v 15.000000000 50.000000000 50.000000000
v 20.000000000 50.000000000 50.000000000
v 25.000000000 50.000000000 50.000000000
v 30.000000000 50.000000000 50.000000000
v 35.000000000 50.000000000 50.000000000
v 40.000000000 50.000000000 50.000000000
v 45.000000000 50.000000000 50.000000000
v 50.000000000 50.000000000 45.000000000
v 50.000000000 50.000000000 40.000000000
v 50.000000000 50.000000000 35.000000000
v 50.000000000 50.000000000 30.000000000
v 50.000000000 50.000000000 25.000000000
v 50.000000000 50.000000000 20.000000000
v 50.000000000 50.000000000 15.000000000
v 50.000000000 50.000000000 10.000000000
v 50.000000000 50.000000000 5.000000000
v 45.000000000 50.000000000 0.000000000
v 40.000000000 50.000000000 0.000000000
v 35.000000000 50.000000000 0.000000000
v 30.000000000 50.000000000 0.000000000
v 25.000000000 50.000000000 0.000000000
v 20.000000000 50.000000000 0.000000000
v 15.000000000 50.000000000 0.000000000
v 10.000000000 50.000000000 0.000000000
v 5.000000000 50.000000000 0.000000000
v 50.000000000 45.000000000 50.000000000
v 50.000000000 40.000000000 50.000000000
v 50.000000000 35.000000000 50.000000000
v 50.000000000 30.000000000 50.000000000
v 50.000000000 25.000000000 50.000000000
v 50.000000000 20.000000000 50.000000000
v 50.000000000 15.000000000 50.000000000
v 50.000000000 10.000000000 50.000000000
v 50.000000000 5.000000000 50.000000000
v 50.000000000 0.000000000 45.000000000
v 50.000000000 0.000000000 40.000000000
v 50.000000000 0.000000000 35.000000000
v 50.000000000 0.000000000 30.000000000
v 50.000000000 0.000000000 25.000000000
v 50.000000000 0.000000000 20.000000000
v 50.000000000 0.000000000 15.000000000
v 50.000000000 0.000000000 10.000000000
v 50.000000000 0.000000000 5.000000000
v 50.000000000 5.000000000 0.000000000
v 50.000000000 10.000000000 0.000000000
v 50.000000000 15.000000000 0.000000000
v 50.000000000 20.000000000 0.000000000
v 50.000000000 25.000000000 0.000000000
v 50.000000000 30.000000000 0.000000000
v 50.000000000 35.000000000 0.000000000
v 50.000000000 40.000000000 0.000000000
v 50.000000000 45.000000000 0.000000000
v 45.000000000 0.000000000 50.000000000
v 40.000000000 0.000000000 50.000000000
v 35.000000000 0.000000000 50.000000000
v 30.000000000 0.000000000 50.000000000
v 25.000000000 0.000000000 50.000000000
v 20.000000000 0.000000000 50.000000000
v 15.000000000 0.000000000 50.000000000
v 10.000000000 0.000000000 50.000000000
v 5.000000000 0.000000000 50.000000000
v 5.000000000 0.000000000 0.000000000
v 10.000000000 0.000000000 0.000000000
v 15.000000000 0.000000000 0.000000000
v 20.000000000 0.000000000 0.000000000
v 25.000000000 0.000000000 0.000000000
v 30.000000000 0.000000000 0.000000000
v 35.000000000 0.000000000 0.000000000
v 40.000000000 0.000000000 0.000000000
v 45.000000000 0.000000000 0.000000000
v 0.000000000 5.000000000 45.000000000
v 0.000000000 10.000000000 45.000000000
v 0.000000000 15.000000000 45.000000000
v 0.000000000 20.000000000 45.000000000
v 0.000000000 25.000000000 45.000000000
v 0.000000000 30.000000000 45.000000000
v 0.000000000 35.000000000 45.000000000
v 0.000000000 40.000000000 45.000000000
v 0.000000000 45.000000000 45.000000000
v 0.000000000 5.000000000 40.000000000
v 0.000000000 10.000000000 40.000000000
v 0.000000000 15.000000000 40.000000000
v 0.000000000 20.000000000 40.000000000
v 0.000000000 25.000000000 40.000000000
v 0.000000000 30.000000000 40.000000000
v 0.000000000 35.000000000 40.000000000
v 0.000000000 40.000000000 40.000000000
v 0.000000000 45.000000000 40.000000000
v 0.000000000 5.000000000 35.000000000
v 0.000000000 10.000000000 35.000000000
v 0.000000000 15.000000000 35.000000000
v 0.000000000 20.000000000 35.000000000
v 0.000000000 25.000000000 35.000000000
v 0.000000000 30.000000000 35.000000000
v 0.000000000 35.000000000 35.000000000
v 0.000000000 40.000000000 35.000000000
v 0.000000000 45.000000000 35.000000000
v 0.000000000 5.000000000 30.000000000
v 0.000000000 10.000000000 30.000000000
v 0.000000000 15.000000000 30.000000000
v 0.000000000 20.000000000 30.000000000
v 0.000000000 25.000000000 30.000000000
v 0.000000000 30.000000000 30.000000000
v 0.000000000 35.000000000 30.000000000
v 0.000000000 40.000000000 30.000000000
v 0.000000000 45.000000000 30.000000000
v 0.000000000 5.000000000 25.000000000
v 0.000000000 10.000000000 25.000000000
v 0.000000000 15.000000000 25.000000000
v 0.000000000 20.000000000 25.000000000
v 0.000000000 25.000000000 25.000000000
v 0.000000000 30.000000000 25.000000000
v 0.000000000 35.000000000 25.000000000
v 0.000000000 40.000000000 25.000000000
v 0.000000000 45.000000000 25.000000000
v 0.000000000 5.000000000 20.000000000
v 0.000000000 10.000000000 20.000000000
v 0.000000000 15.000000000 20.000000000
v 0.000000000 20.000000000 20.000000000
v 0.000000000 25.000000000 20.000000000
v 0.000000000 30.000000000 20.000000000
v 0.000000000 35.000000000 20.000000000
v 0.000000000 40.000000000 20.000000000
v 0.000000000 45.000000000 20.000000000
v 0.000000000 5.000000000 15.000000000
v 0.000000000 10.000000000 15.000000000
v 0.000000000 15.000000000 15.000000000
v 0.000000000 20.000000000 15.000000000
v 0.000000000 25.000000000 15.000000000
v 0.000000000 30.000000000 15.000000000
v 0.000000000 35.000000000 15.000000000
v 0.000000000 40.000000000 15.000000000
v 0.000000000 45.000000000 15.000000000
v 0.000000000 5.000000000 10.000000000
v 0.000000000 10.000000000 10.000000000
v 0.000000000 15.000000000 10.000000000
v 0.000000000 20.000000000 10.000000000
v 0.000000000 25.000000000 10.000000000
v 0.000000000 30.000000000 10.000000000
v 0.000000000 35.000000000 10.000000000
v 0.000000000 40.000000000 10.000000000
v 0.000000000 45.000000000 10.000000000
v 0.000000000 5.000000000 5.000000000
v 0.000000000 10.000000000 5.000000000
v 0.000000000 15.000000000 5.000000000
v 0.000000000 20.000000000 5.000000000
v 0.000000000 25.000000000 5.000000000
v 0.000000000 30.000000000 5.000000000
v 0.000000000 35.000000000 5.000000000
v 0.000000000 40.000000000 5.000000000
v 0.000000000 45.000000000 5.000000000
v 5.000000000 50.000000000 45.000000000
v 10.000000000 50.000000000 45.000000000
v 15.000000000 50.000000000 45.000000000
v 20.000000000 50.000000000 45.000000000
v 25.000000000 50.000000000 45.000000000
v 30.000000000 50.000000000 45.000000000
v 35.000000000 50.000000000 45.000000000
v 40.000000000 50.000000000 45.000000000
v 45.000000000 50.000000000 45.000000000
v 5.000000000 50.000000000 40.000000000
v 10.000000000 50.000000000 40.000000000
v 15.000000000 50.000000000 40.000000000
v 20.000000000 50.000000000 40.000000000
v 25.000000000 50.000000000 40.000000000
v 30.000000000 50.000000000 40.000000000
v 35.000000000 50.000000000 40.000000000
v 40.000000000 50.000000000 40.000000000
v 45.000000000 50.000000000 40.000000000
v 5.000000000 50.000000000 35.000000000
v 10.000000000 50.000000000 35.000000000
v 15.000000000 50.000000000 35.000000000
v 20.000000000 50.000000000 35.000000000
v 25.000000000 50.000000000 35.000000000
v 30.000000000 50.000000000 35.000000000
v 35.000000000 50.000000000 35.000000000
v 40.000000000 50.000000000 35.000000000
v 45.000000000 50.000000000 35.000000000
v 5.000000000 50.000000000 30.000000000
v 10.000000000 50.000000000 30.000000000
v 15.000000000 50.000000000 30.000000000
v 20.000000000 50.000000000 30.000000000
v 25.000000000 50.000000000 30.000000000
v 30.000000000 50.000000000 30.000000000
v 35.000000000 50.000000000 30.000000000
v 40.000000000 50.000000000 30.000000000
v 45.000000000 50.000000000 30.000000000
v 5.000000000 50.000000000 25.000000000
v 10.000000000 50.000000000 25.000000000
v 15.000000000 50.000000000 25.000000000
v 20.000000000 50.000000000 25.000000000
v 25.000000000 50.000000000 25.000000000
v 30.000000000 50.000000000 25.000000000
v 35.000000000 50.000000000 25.000000000
v 40.000000000 50.000000000 25.000000000
v 45.000000000 50.000000000 25.000000000
v 5.000000000 50.000000000 20.000000000
v 10.000000000 50.000000000 20.000000000
v 15.000000000 50.000000000 20.000000000
v 20.000000000 50.000000000 20.000000000
v 25.000000000 50.000000000 20.000000000
v 30.000000000 50.000000000 20.000000000
v 35.000000000 50.000000000 20.000000000
v 40.000000000 50.000000000 20.000000000
v 45.000000000 50.000000000 20.000000000
v 5.000000000 50.000000000 15.000000000
v 10.000000000 50.000000000 15.000000000
v 15.000000000 50.000000000 15.000000000
v 20.000000000 50.000000000 15.000000000
v 25.000000000 50.000000000 15.000000000
v 30.000000000 50.000000000 15.000000000
v 35.000000000 50.000000000 15.000000000
v 40.000000000 50.000000000 15.000000000
v 45.000000000 50.000000000 15.000000000
v 5.000000000 50.000000000 10.000000000
v 10.000000000 50.000000000 10.000000000
v 15.000000000 50.000000000 10.000000000
v 20.000000000 50.000000000 10.000000000
v 25.000000000 50.000000000 10.000000000
v 30.000000000 50.000000000 10.000000000
v 35.000000000 50.000000000 10.000000000
v 40.000000000 50.000000000 10.000000000
v 45.000000000 50.000000000 10.000000000
v 5.000000000 50.000000000 5.000000000
v 10.000000000 50.000000000 5.000000000
v 15.000000000 50.000000000 5.000000000
v 20.000000000 50.000000000 5.000000000
v 25.000000000 50.000000000 5.000000000
v 30.000000000 50.000000000 5.000000000
v 35.000000000 50.000000000 5.000000000
v 40.000000000 50.000000000 5.000000000
v 45.000000000 50.000000000 5.000000000
v 50.000000000 45.000000000 45.000000000
v 50.000000000 40.000000000 45.000000000
v 50.000000000 35.000000000 45.000000000
v 50.000000000 30.000000000 45.000000000
v 50.000000000 25.000000000 45.000000000
v 50.000000000 20.000000000 45.000000000
v 50.000000000 15.000000000 45.000000000
v 50.000000000 10.000000000 45.000000000
v 50.000000000 5.000000000 45.000000000
v 50.000000000 45.000000000 40.000000000
v 50.000000000 40.000000000 40.000000000
v 50.000000000 35.000000000 40.000000000
v 50.000000000 30.000000000 40.000000000
v 50.000000000 25.000000000 40.000000000
v 50.000000000 20.000000000 40.000000000
v 50.000000000 15.000000000 40.000000000
v 50.000000000 10.000000000 40.000000000
v 50.000000000 5.000000000 40.000000000
v 50.000000000 45.000000000 35.000000000
v 50.000000000 40.000000000 35.000000000
v 50.000000000 35.000000000 35.000000000
v 50.000000000 30.000000000 35.000000000
v 50.000000000 25.000000000 35.000000000
v 50.000000000 20.000000000 35.000000000
v 50.000000000 15.000000000 35.000000000
v 50.000000000 10.000000000 35.000000000
v 50.000000000 5.000000000 35.000000000
v 50.000000000 45.000000000 30.000000000
v 50.000000000 40.000000000 30.000000000
v 50.000000000 35.000000000 30.000000000
v 50.000000000 30.000000000 30.000000000
v 50.000000000 25.000000000 30.000000000
v 50.000000000 20.000000000 30.000000000
v 50.000000000 15.000000000 30.000000000
v 50.000000000 10.000000000 30.000000000
v 50.000000000 5.000000000 30.000000000
v 50.000000000 45.000000000 25.000000000
v 50.000000000 40.000000000 25.000000000
v 50.000000000 35.000000000 25.000000000
v 50.000000000 30.000000000 25.000000000
v 50.000000000 25.000000000 25.000000000
v 50.000000000 20.000000000 25.000000000
v 50.000000000 15.000000000 25.000000000
v 50.000000000 10.000000000 25.000000000
v 50.000000000 5.000000000 25.000000000
v 50.000000000 45.000000000 20.000000000
v 50.000000000 40.000000000 20.000000000
v 50.000000000 35.000000000 20.000000000
v 50.000000000 30.000000000 20.000000000
v 50.000000000 25.000000000 20.000000000
v 50.000000000 20.000000000 20.000000000
v 50.000000000 15.000000000 20.000000000
v 50.000000000 10.000000000 20.000000000
v 50.000000000 5.000000000 20.000000000
v 50.000000000 45.000000000 15.000000000
v 50.000000000 40.000000000 15.000000000
v 50.000000000 35.000000000 15.000000000
v 50.000000000 30.000000000 15.000000000
v 50.000000000 25.000000000 15.000000000
v 50.000000000 20.000000000 15.000000000
v 50.000000000 15.000000000 15.000000000
v 50.000000000 10.000000000 15.000000000
v 50.000000000 5.000000000 15.000000000
v 50.000000000 45.000000000 10.000000000
v 50.000000000 40.000000000 10.000000000
v 50.000000000 35.000000000 10.000000000
v 50.000000000 30.000000000 10.000000000
v 50.000000000 25.000000000 10.000000000
v 50.000000000 20.000000000 10.000000000
v 50.000000000 15.000000000 10.000000000
v 50.000000000 10.000000000 10.000000000
v 50.000000000 5.000000000 10.000000000
v 50.000000000 45.000000000 5.000000000
v 50.000000000 40.000000000 5.000000000
v 50.000000000 35.000000000 5.000000000
v 50.000000000 30.000000000 5.000000000
v 50.000000000 25.000000000 5.000000000
v 50.000000000 20.000000000 5.000000000
v 50.000000000 15.000000000 5.000000000
v 50.000000000 10.000000000 5.000000000
v 50.000000000 5.000000000 5.000000000
v 45.000000000 0.000000000 45.000000000
v 40.000000000 0.000000000 45.000000000
v 35.000000000 0.000000000 45.000000000
v 30.000000000 0.000000000 45.000000000
v 25.000000000 0.000000000 45.000000000
v 20.000000000 0.000000000 45.000000000
v 15.000000000 0.000000000 45.000000000
v 10.000000000 0.000000000 45.000000000
v 5.000000000 0.000000000 45.000000000
v 45.000000000 0.000000000 40.000000000
v 40.000000000 0.000000000 40.000000000
v 35.000000000 0.000000000 40.000000000
v 30.000000000 0.000000000 40.000000000
v 25.000000000 0.000000000 40.000000000
v 20.000000000 0.000000000 40.000000000
v 15.000000000 0.000000000 40.000000000
v 10.000000000 0.000000000 40.000000000
v 5.000000000 0.000000000 40.000000000
v 45.000000000 0.000000000 35.000000000
v 40.000000000 0.000000000 35.000000000
v 35.000000000 0.000000000 35.000000000
v 30.000000000 0.000000000 35.000000000
v 25.000000000 0.000000000 35.000000000
v 20.000000000 0.000000000 35.000000000
v 15.000000000 0.000000000 35.000000000
v 10.000000000 0.000000000 35.000000000
v 5.000000000 0.000000000 35.000000000
v 45.000000000 0.000000000 30.000000000
v 40.000000000 0.000000000 30.000000000
v 35.000000000 0.000000000 30.000000000
v 30.000000000 0.000000000 30.000000000
v 25.000000000 0.000000000 30.000000000
v 20.000000000 0.000000000 30.000000000
v 15.000000000 0.000000000 30.000000000
v 10.000000000 0.000000000 30.000000000
v 5.000000000 0.000000000 30.000000000
v 45.000000000 0.000000000 25.000000000
v 40.000000000 0.000000000 25.000000000
v 35.000000000 0.000000000 25.000000000
v 30.000000000 0.000000000 25.000000000
v 25.000000000 0.000000000 25.000000000
v 20.000000000 0.000000000 25.000000000
v 15.000000000 0.000000000 25.000000000
v 10.000000000 0.000000000 25.000000000
v 5.000000000 0.000000000 25.000000000
v 45.000000000 0.000000000 20.000000000
v 40.000000000 0.000000000 20.000000000
v 35.000000000 0.000000000 20.000000000
v 30.000000000 0.000000000 20.000000000
v 25.000000000 0.000000000 20.000000000
v 20.000000000 0.000000000 20.000000000
v 15.000000000 0.000000000 20.000000000
v 10.000000000 0.000000000 20.000000000
v 5.000000000 0.000000000 20.000000000
v 45.000000000 0.000000000 15.000000000
v 40.000000000 0.000000000 15.000000000
v 35.000000000 0.000000000 15.000000000
v 30.000000000 0.000000000 15.000000000
v 25.000000000 0.000000000 15.000000000
v 20.000000000 0.000000000 15.000000000
v 15.000000000 0.000000000 15.000000000
v 10.000000000 0.000000000 15.000000000
v 5.000000000 0.000000000 15.000000000
v 45.000000000 0.000000000 10.000000000
v 40.000000000 0.000000000 10.000000000
v 35.000000000 0.000000000 10.000000000
v 30.000000000 0.000000000 10.000000000
v 25.000000000 0.000000000 10.000000000
v 20.000000000 0.000000000 10.000000000
v 15.000000000 0.000000000 10.000000000
v 10.000000000 0.000000000 10.000000000
v 5.000000000 0.000000000 10.000000000
v 45.000000000 0.000000000 5.000000000
v 40.000000000 0.000000000 5.000000000
v 35.000000000 0.000000000 5.000000000
v 30.000000000 0.000000000 5.000000000
v 25.000000000 0.000000000 5.000000000
v 20.000000000 0.000000000 5.000000000
v 15.000000000 0.000000000 5.000000000
v 10.000000000 0.000000000 5.000000000
v 5.000000000 0.000000000 5.000000000
v 5.000000000 45.000000000 50.000000000
v 5.000000000 40.000000000 50.000000000
v 5.000000000 35.000000000 50.000000000
v 5.000000000 30.000000000 50.000000000
v 5.000000000 25.000000000 50.000000000
v 5.000000000 20.000000000 50.000000000
v 5.000000000 15.000000000 50.000000000
v 5.000000000 10.000000000 50.000000000
v 5.000000000 5.000000000 50.000000000
v 10.000000000 45.000000000 50.000000000
v 10.000000000 40.000000000 50.000000000
v 10.000000000 35.000000000 50.000000000
v 10.000000000 30.000000000 50.000000000
v 10.000000000 25.000000000 50.000000000
v 10.000000000 20.000000000 50.000000000
v 10.000000000 15.000000000 50.000000000
v 10.000000000 10.000000000 50.000000000
v 10.000000000 5.000000000 50.000000000
v 15.000000000 45.000000000 50.000000000
v 15.000000000 40.000000000 50.000000000
v 15.000000000 35.000000000 50.000000000
v 15.000000000 30.000000000 50.000000000
v 15.000000000 25.000000000 50.000000000
v 15.000000000 20.000000000 50.000000000
v 15.000000000 15.000000000 50.000000000
v 15.000000000 10.000000000 50.000000000
v 15.000000000 5.000000000 50.000000000
v 20.000000000 45.000000000 50.000000000
v 20.000000000 40.000000000 50.000000000
v 20.000000000 35.000000000 50.000000000
v 20.000000000 30.000000000 50.000000000
v 20.000000000 25.000000000 50.000000000
v 20.000000000 20.000000000 50.000000000
v 20.000000000 15.000000000 50.000000000
v 20.000000000 10.000000000 50.000000000
v 20.000000000 5.000000000 50.000000000
v 25.000000000 45.000000000 50.000000000
v 25.000000000 40.000000000 50.000000000
v 25.000000000 35.000000000 50.000000000
v 25.000000000 30.000000000 50.000000000
v 25.000000000 25.000000000 50.000000000
v 25.000000000 20.000000000 50.000000000
v 25.000000000 15.000000000 50.000000000
v 25.000000000 10.000000000 50.000000000
v 25.000000000 5.000000000 50.000000000
v 30.000000000 45.000000000 50.000000000
v 30.000000000 40.000000000 50.000000000
v 30.000000000 35.000000000 50.000000000
v 30.000000000 30.000000000 50.000000000
v 30.000000000 25.000000000 50.000000000
v 30.000000000 20.000000000 50.000000000
v 30.000000000 15.000000000 50.000000000
v 30.000000000 10.000000000 50.000000000
v 30.000000000 5.000000000 50.000000000
v 35.000000000 45.000000000 50.000000000
v 35.000000000 40.000000000 50.000000000
v 35.000000000 35.000000000 50.000000000
v 35.000000000 30.000000000 50.000000000
v 35.000000000 25.000000000 50.000000000
v 35.000000000 20.000000000 50.000000000
v 35.000000000 15.000000000 50.000000000
v 35.000000000 10.000000000 50.000000000
v 35.000000000 5.000000000 50.000000000
v 40.000000000 45.000000000 50.000000000
v 40.000000000 40.000000000 50.000000000
v 40.000000000 35.000000000 50.000000000
v 40.000000000 30.000000000 50.000000000
v 40.000000000 25.000000000 50.000000000
v 40.000000000 20.000000000 50.000000000
v 40.000000000 15.000000000 50.000000000
v 40.000000000 10.000000000 50.000000000
v 40.000000000 5.000000000 50.000000000
v 45.000000000 45.000000000 50.000000000
v 45.000000000 40.000000000 50.000000000
v 45.000000000 35.000000000 50.000000000
v 45.000000000 30.000000000 50.000000000
v 45.000000000 25.000000000 50.000000000
v 45.000000000 20.000000000 50.000000000
v 45.000000000 15.000000000 50.000000000
v 45.000000000 10.000000000 50.000000000
v 45.000000000 5.000000000 50.000000000
v 45.000000000 5.000000000 0.000000000
v 40.000000000 5.000000000 0.000000000
v 35.000000000 5.000000000 0.000000000
v 30.000000000 5.000000000 0.000000000
v 25.000000000 5.000000000 0.000000000
v 20.000000000 5.000000000 0.000000000
v 15.000000000 5.000000000 0.000000000
v 10.000000000 5.000000000 0.000000000
v 5.000000000 5.000000000 0.000000000
v 45.000000000 10.000000000 0.000000000
v 40.000000000 10.000000000 0.000000000
v 35.000000000 10.000000000 0.000000000
v 30.000000000 10.000000000 0.000000000
v 25.000000000 10.000000000 0.000000000
v 20.000000000 10.000000000 0.000000000
v 15.000000000 10.000000000 0.000000000
v 10.000000000 10.000000000 0.000000000
v 5.000000000 10.000000000 0.000000000
v 45.000000000 15.000000000 0.000000000
v 40.000000000 15.000000000 0.000000000
v 35.000000000 15.000000000 0.000000000
v 30.000000000 15.000000000 0.000000000
v 25.000000000 15.000000000 0.000000000
v 20.000000000 15.000000000 0.000000000
v 15.000000000 15.000000000 0.000000000
v 10.000000000 15.000000000 0.000000000
v 5.000000000 15.000000000 0.000000000
v 45.000000000 20.000000000 0.000000000
v 40.000000000 20.000000000 0.000000000
v 35.000000000 20.000000000 0.000000000
v 30.000000000 20.000000000 0.000000000
v 25.000000000 20.000000000 0.000000000
v 20.000000000 20.000000000 0.000000000
v 15.000000000 20.000000000 0.000000000
v 10.000000000 20.000000000 0.000000000
v 5.000000000 20.000000000 0.000000000
v 45.000000000 25.000000000 0.000000000
v 40.000000000 25.000000000 0.000000000
v 35.000000000 25.000000000 0.000000000
v 30.000000000 25.000000000 0.000000000
v 25.000000000 25.000000000 0.000000000
v 20.000000000 25.000000000 0.000000000
v 15.000000000 25.000000000 0.000000000
v 10.000000000 25.000000000 0.000000000
v 5.000000000 25.000000000 0.000000000
v 45.000000000 30.000000000 0.000000000
v 40.000000000 30.000000000 0.000000000
v 35.000000000 30.000000000 0.000000000
v 30.000000000 30.000000000 0.000000000
v 25.000000000 30.000000000 0.000000000
v 20.000000000 30.000000000 0.000000000
v 15.000000000 30.000000000 0.000000000
v 10.000000000 30.000000000 0.000000000
v 5.000000000 30.000000000 0.000000000
v 45.000000000 35.000000000 0.000000000
v 40.000000000 35.000000000 0.000000000
v 35.000000000 35.000000000 0.000000000
v 30.000000000 35.000000000 0.000000000
v 25.000000000 35.000000000 0.000000000
v 20.000000000 35.000000000 0.000000000
v 15.000000000 35.000000000 0.000000000
v 10.000000000 35.000000000 0.000000000
v 5.000000000 35.000000000 0.000000000
v 45.000000000 40.000000000 0.000000000
v 40.000000000 40.000000000 0.000000000
v 35.000000000 40.000000000 0.000000000
v 30.000000000 40.000000000 0.000000000
v 25.000000000 40.000000000 0.000000000
v 20.000000000 40.000000000 0.000000000
v 15.000000000 40.000000000 0.000000000
v 10.000000000 40.000000000 0.000000000
v 5.000000000 40.000000000 0.000000000
v 45.000000000 45.000000000 0.000000000
v 40.000000000 45.000000000 0.000000000
v 35.000000000 45.000000000 0.000000000
v 30.000000000 45.000000000 0.000000000
v 25.000000000 45.000000000 0.000000000
v 20.000000000 45.000000000 0.000000000
v 15.000000000 45.000000000 0.000000000
v 10.000000000 45.000000000 0.000000000
v 5.000000000 45.000000000 0.000000000
v 0.000000000 0.000000000 0.000000000
f 1 117 9
f 117 1 44
f 9 118 10
f 118 9 117
f 10 119 11
f 119 10 118
f 11 120 12
f 120 11 119
f 12 121 13
f 121 12 120
f 13 122 14
f 122 13 121
f 14 123 15
f 123 14 122
f 15 124 16
f 124 15 123
f 16 125 17
f 125 16 124
f 17 18 2
f 18 17 125
f 44 126 117
f 126 44 43
f 117 127 118
f 127 117 126
f 118 128 119
f 128 118 127
f 119 129 120
f 129 119 128
f 120 130 121
f 130 120 129
f 121 131 122
f 131 121 130
f 122 132 123
f 132 122 131
f 123 133 124
f 133 123 132
f 124 134 125
f 134 124 133
f 125 19 18
f 19 125 134
f 43 135 126
f 135 43 42
f 126 136 127
f 136 126 135
f 127 137 128
f 137 127 136
f 128 138 129
f 138 128 137
f 129 139 130
f 139 129 138
f 130 140 131
f 140 130 139
f 131 141 132
f 141 131 140
f 132 142 133
f 142 132 141
f 133 143 134
f 143 133 142
f 134 20 19
f 20 134 143
f 42 144 135
f 144 42 41
f 135 145 136
f 145 135 144
f 136 146 137
f 146 136 145
f 137 147 138
f 147 137 146
f 138 148 139
f 148 138 147
f 139 149 140
f 149 139 148
f 140 150 141
f 150 140 149
f 141 151 142
f 151 141 150
f 142 152 143
f 152 142 151
f 143 21 20
f 21 143 152
f 41 153 144
f 153 41 40
f 144 154 145
f 154 144 153
f 145 155 146
f 155 145 154
f 146 156 147
f 156 146 155
f 147 157 148
f 157 147 156
f 148 158 149
f 158 148 157
f 149 159 150
f 159 149 158
f 150 160 151
f 160 150 159
f 151 161 152
f 161 151 160
f 152 22 21
f 22 152 161
f 40 162 153
f 162 40 39
f 153 163 154
f 163 153 162
f 154 164 155
f 164 154 163
f 155 165 156
f 165 155 164
f 156 166 157
f 166 156 165
f 157 167 158
f 167 157 166
f 158 168 159
f 168 158 167
f 159 169 160
f 169 159 168
f 160 170 161
f 170 160 169
f 161 23 22
f 23 161 170
f 39 171 162
f 171 39 38
f 162 172 163
f 172 162 171
f 163 173 164
f 173 163 172
f 164 174 165
f 174 164 173
f 165 175 166
f 175 165 174
f 166 176 167
f 176 166 175
f 167 177 168
f 177 167 176
f 168 178 169
f 178 168 177
f 169 179 170
f 179 169 178
f 170 24 23
f 24 170 179
f 38 180 171
f 180 38 37
f 171 181 172
f 181 171 180
f 172 182 173
f 182 172 181
f 173 183 174
f 183 173 182
f 174 184 175
f 184 174 183
f 175 185 176
f 185 175 184
f 176 186 177
f 186 176 185
f 177 187 178
f 187 177 186
f 178 188 179
f 188 178 187
f 179 25 24
f 25 179 188
f 37 189 180
f 189 37 36
f 180 190 181
f 190 180 189
f 181 191 182
f 191 181 190
f 182 192 183
f 192 182 191
f 183 193 184
f 193 183 192
f 184 194 185
f 194 184 193
f 185 195 186
f 195 185 194
f 186 196 187
f 196 186 195
f 187 197 188
f 197 187 196
f 188 26 25
f 26 188 197
f 36 35 189
f 35 36 4
f 189 34 190
f 34 189 35
f 190 33 191
f 33 190 34
f 191 32 192
f 32 191 33
f 192 31 193
f 31 192 32
f 193 30 194
f 30 193 31
f 194 29 195
f 29 194 30
f 195 28 196
f 28 195 29
f 196 27 197
f 27 196 28
f 197 3 26
f 3 197 27
f 2 198 45
f 198 2 18
f 45 199 46
f 199 45 198
f 46 200 47
f 200 46 199
f 47 201 48
f 201 47 200
f 48 202 49
f 202 48 201
f 49 203 50
f 203 49 202
f 50 204 51
f 204 50 203
f 51 205 52
f 205 51 204
f 52 206 53
f 206 52 205
f 53 54 5
f 54 53 206
f 18 207 198
f 207 18 19
f 198 208 199
f 208 198 207
f 199 209 200
f 209 199 208
f 200 210 201
f 210 200 209
f 201 211 202
f 211 201 210
f 202 212 203
f 212 202 211
f 203 213 204
f 213 203 212
f 204 214 205
f 214 204 213
f 205 215 206
f 215 205 214
f 206 55 54
f 55 206 215
f 19 216 207
f 216 19 20
f 207 217 208
f 217 207 216
f 208 218 209
f 218 208 217
f 209 219 210
f 219 209 218
f 210 220 211
f 220 210 219
f 211 221 212
f 221 211 220
f 212 222 213
f 222 212 221
f 213 223 214
f 223 213 222
f 214 224 215
f 224 214 223
f 215 56 55
f 56 215 224
f 20 225 216
f 225 20 21
f 216 226 217
f 226 216 225
f 217 227 218
f 227 217 226
f 218 228 219
f 228 218 227
f 219 229 220
f 229 219 228
f 220 230 221
f 230 220 229
f 221 231 222
f 231 221 230
f 222 232 223
f 232 222 231
f 223 233 224
f 233 223 232
f 224 57 56
f 57 224 233
f 21 234 225
f 234 21 22
f 225 235 226
f 235 225 234
f 226 236 227
f 236 226 235
f 227 237 228
f 237 227 236
f 228 238 229
f 238 228 237
f 229 239 230
f 239 229 238
f 230 240 231
f 240 230 239
f 231 241 232
f 241 231 240
f 232 242 233
f 242 232 241
f 233 58 57
f 58 233 242
f 22 243 234
f 243 22 23
f 234 244 235
f 244 234 243
f 235 245 236
f 245 235 244
f 236 246 237
f 246 236 245
f 237 247 238
f 247 237 246
f 238 248 239
f 248 238 247
f 239 249 240
f 249 239 248
f 240 250 241
f 250 240 249
f 241 251 242
f 251 241 250
f 242 59 58
f 59 242 251
f 23 252 243
f 252 23 24
f 243 253 244
f 253 243 252
f 244 254 245
f 254 244 253
f 245 255 246
f 255 245 254
f 246 256 247
f 256 246 255
f 247 257 248
f 257 247 256
f 248 258 249
f 258 248 257
f 249 259 250
f 259 249 258
f 250 260 251
f 260 250 259
f 251 60 59
f 60 251 260
f 24 261 252
f 261 24 25
f 252 262 253
f 262 252 261
f 253 263 254
f 263 253 262
f 254 264 255
f 264 254 263
f 255 265 256
f 265 255 264
f 256 266 257
f 266 256 265
f 257 267 258
f 267 257 266
f 258 268 259
f 268 258 267
f 259 269 260
f 269 259 268
f 260 61 60
f 61 260 269
f 25 270 261
f 270 25 26
f 261 271 262
f 271 261 270
f 262 272 263
f 272 262 271
f 263 273 264
f 273 263 272
f 264 274 265
f 274 264 273
f 265 275 266
f 275 265 274
f 266 276 267
f 276 266 275
f 267 277 268
f 277 267 276
f 268 278 269
f 278 268 277
f 269 62 61
f 62 269 278
f 26 71 270
f 71 26 3
f 270 70 271
f 70 270 71
f 271 69 272
f 69 271 70
f 272 68 273
f 68 272 69
f 273 67 274
f 67 273 68
f 274 66 275
f 66 274 67
f 275 65 276
f 65 275 66
f 276 64 277
f 64 276 65
f 277 63 278
f 63 277 64
f 278 6 62
f 6 278 63
f 5 279 72
f 279 5 54
f 72 280 73
f 280 72 279
f 73 281 74
f 281 73 280
f 74 282 75
f 282 74 281
f 75 283 76
f 283 75 282
f 76 284 77
f 284 76 283
f 77 285 78
f 285 77 284
f 78 286 79
f 286 78 285
f 79 287 80
f 287 79 286
f 80 81 7
f 81 80 287
f 54 288 279
f 288 54 55
f 279 289 280
f 289 279 288
f 280 290 281
f 290 280 289
f 281 291 282
f 291 281 290
f 282 292 283
f 292 282 291
f 283 293 284
f 293 283 292
f 284 294 285
f 294 284 293
f 285 295 286
f 295 285 294
f 286 296 287
f 296 286 295
f 287 82 81
f 82 287 296
f 55 297 288
f 297 55 56
f 288 298 289
f 298 288 297
f 289 299 290
f 299 289 298
f 290 300 291
f 300 290 299
f 291 301 292
f 301 291 300
f 292 302 293
f 302 292 301
f 293 303 294
f 303 293 302
f 294 304 295
f 304 294 303
f 295 305 296
f 305 295 304
f 296 83 82
f 83 296 305
f 56 306 297
f 306 56 57
f 297 307 298
f 307 297 306
f 298 308 299
f 308 298 307
f 299 309 300
f 309 299 308
f 300 310 301
f 310 300 309
f 301 311 302
f 311 301 310
f 302 312 303
f 312 302 311
f 303 313 304
f 313 303 312
f 304 314 305
f 314 304 313
f 305 84 83
f 84 305 314
f 57 315 306
f 315 57 58
f 306 316 307
f 316 306 315
f 307 317 308
f 317 307 316
f 308 318 309
f 318 308 317
f 309 319 310
f 319 309 318
f 310 320 311
f 320 310 319
f 311 321 312
f 321 311 320
f 312 322 313
f 322 312 321
f 313 323 314
f 323 313 322
f 314 85 84
f 85 314 323
f 58 324 315
f 324 58 59
f 315 325 316
f 325 315 324
f 316 326 317
f 326 316 325
f 317 327 318
f 327 317 326
f 318 328 319
f 328 318 327
f 319 329 320
f 329 319 328
f 320 330 321
f 330 320 329
f 321 331 322
f 331 321 330
f 322 332 323
f 332 322 331
f 323 86 85
f 86 323 332
f 59 333 324
f 333 59 60
f 324 334 325
f 334 324 333
f 325 335 326
f 335 325 334
f 326 336 327
f 336 326 335
f 327 337 328
f 337 327 336
f 328 338 329
f 338 328 337
f 329 339 330
f 339 329 338
f 330 340 331
f 340 330 339
f 331 341 332
f 341 331 340
f 332 87 86
f 87 332 341
f 60 342 333
f 342 60 61
f 333 343 334
f 343 333 342
f 334 344 335
f 344 334 343
f 335 345 336
f 345 335 344
f 336 346 337
f 346 336 345
f 337 347 338
f 347 337 346
f 338 348 339
f 348 338 347
f 339 349 340
f 349 339 348
f 340 350 341
f 350 340 349
f 341 88 87
f 88 341 350
f 61 351 342
f 351 61 62
f 342 352 343
f 352 342 351
f 343 353 344
f 353 343 352
f 344 354 345
f 354 344 353
f 345 355 346
f 355 345 354
f 346 356 347
f 356 346 355
f 347 357 348
f 357 347 356
f 348 358 349
f 358 348 357
f 349 359 350
f 359 349 358
f 350 89 88
f 89 350 359
f 62 98 351
f 98 62 6
f 351 97 352
f 97 351 98
f 352 96 353
f 96 352 97
f 353 95 354
f 95 353 96
f 354 94 355
f 94 354 95
f 355 93 356
f 93 355 94
f 356 92 357
f 92 356 93
f 357 91 358
f 91 357 92
f 358 90 359
f 90 358 91
f 359 8 89
f 8 359 90
f 7 360 99
f 360 7 81
f 99 361 100
f 361 99 360
f 100 362 101
f 362 100 361
f 101 363 102
f 363 101 362
f 102 364 103
f 364 102 363
f 103 365 104
f 365 103 364
f 104 366 105
f 366 104 365
f 105 367 106
f 367 105 366
f 106 368 107
f 368 106 367
f 107 44 1
f 44 107 368
f 81 369 360
f 369 81 82
f 360 370 361
f 370 360 369
f 361 371 362
f 371 361 370
f 362 372 363
f 372 362 371
f 363 373 364
f 373 363 372
f 364 374 365
f 374 364 373
f 365 375 366
f 375 365 374
f 366 376 367
f 376 366 375
f 367 377 368
f 377 367 376
f 368 43 44
f 43 368 377
f 82 378 369
f 378 82 83
f 369 379 370
f 379 369 378
f 370 380 371
f 380 370 379
f 371 381 372
f 381 371 380
f 372 382 373
f 382 372 381
f 373 383 374
f 383 373 382
f 374 384 375
f 384 374 383
f 375 385 376
f 385 375 384
f 376 386 377
f 386 376 385
f 377 42 43
f 42 377 386
f 83 387 378
f 387 83 84
f 378 388 379
f 388 378 387
f 379 389 380
f 389 379 388
f 380 390 381
f 390 380 389
f 381 391 382
f 391 381 390
f 382 392 383
f 392 382 391
f 383 393 384
f 393 383 392
f 384 394 385
f 394 384 393
f 385 395 386
f 395 385 394
f 386 41 42
f 41 386 395
f 84 396 387
f 396 84 85
f 387 397 388
f 397 387 396
f 388 398 389
f 398 388 397
f 389 399 390
f 399 389 398
f 390 400 391
f 400 390 399
f 391 401 392
f 401 391 400
f 392 402 393
f 402 392 401
f 393 403 394
f 403 393 402
f 394 404 395
f 404 394 403
f 395 40 41
f 40 395 404
f 85 405 396
f 405 85 86
f 396 406 397
f 406 396 405
f 397 407 398
f 407 397 406
f 398 408 399
f 408 398 407
f 399 409 400
f 409 399 408
f 400 410 401
f 410 400 409
f 401 411 402
f 411 401 410
f 402 412 403
f 412 402 411
f 403 413 404
f 413 403 412
f 404 39 40
f 39 404 413
f 86 414 405
f 414 86 87
f 405 415 406
f 415 405 414
f 406 416 407
f 416 406 415
f 407 417 408
f 417 407 416
f 408 418 409
f 418 408 417
f 409 419 410
f 419 409 418
f 410 420 411
f 420 410 419
f 411 421 412
f 421 411 420
f 412 422 413
f 422 412 421
f 413 38 39
f 38 413 422
f 87 423 414
f 423 87 88
f 414 424 415
f 424 414 423
f 415 425 416
f 425 415 424
f 416 426 417
f 426 416 425
f 417 427 418
f 427 417 426
f 418 428 419
f 428 418 427
f 419 429 420
f 429 419 428
f 420 430 421
f 430 420 429
f 421 431 422
f 431 421 430
f 422 37 38
f 37 422 431
f 88 432 423
f 432 88 89
f 423 433 424
f 433 423 432
f 424 434 425
f 434 424 433
f 425 435 426
f 435 425 434
f 426 436 427
f 436 426 435
f 427 437 428
f 437 427 436
f 428 438 429
f 438 428 437
f 429 439 430
f 439 429 438
f 430 440 431
f 440 430 439
f 431 36 37
f 36 431 440
f 89 116 432
f 116 89 8
f 432 115 433
f 115 432 116
f 433 114 434
f 114 433 115
f 434 113 435
f 113 434 114
f 435 112 436
f 112 435 113
f 436 111 437
f 111 436 112
f 437 110 438
f 110 437 111
f 438 109 439
f 109 438 110
f 439 108 440
f 108 439 109
f 440 4 36
f 4 440 108
f 2 441 17
f 441 2 45
f 17 442 16
f 442 17 441
f 16 443 15
f 443 16 442
f 15 444 14
f 444 15 443
f 14 445 13
f 445 14 444
f 13 446 12
f 446 13 445
f 12 447 11
f 447 12 446
f 11 448 10
f 448 11 447
f 10 449 9
f 449 10 448
f 9 107 1
f 107 9 449
f 45 450 441
f 450 45 46
f 441 451 442
f 451 441 450
f 442 452 443
f 452 442 451
f 443 453 444
f 453 443 452
f 444 454 445
f 454 444 453
f 445 455 446
f 455 445 454
f 446 456 447
f 456 446 455
f 447 457 448
f 457 447 456
f 448 458 449
f 458 448 457
f 449 106 107
f 106 449 458
f 46 459 450
f 459 46 47
f 450 460 451
f 460 450 459
f 451 461 452
f 461 451 460
f 452 462 453
f 462 452 461
f 453 463 454
f 463 453 462
f 454 464 455
f 464 454 463
f 455 465 456
f 465 455 464
f 456 466 457
f 466 456 465
f 457 467 458
f 467 457 466
f 458 105 106
f 105 458 467
f 47 468 459
f 468 47 48
f 459 469 460
f 469 459 468
f 460 470 461
f 470 460 469
f 461 471 462
f 471 461 470
f 462 472 463
f 472 462 471
f 463 473 464
f 473 463 472
f 464 474 465
f 474 464 473
f 465 475 466
f 475 465 474
f 466 476 467
f 476 466 475
f 467 104 105
f 104 467 476
f 48 477 468
f 477 48 49
f 468 478 469
f 478 468 477
f 469 479 470
f 479 469 478
f 470 480 471
f 480 470 479
f 471 481 472
f 481 471 480
f 472 482 473
f 482 472 481
f 473 483 474
f 483 473 482
f 474 484 475
f 484 474 483
f 475 485 476
f 485 475 484
f 476 103 104
f 103 476 485
f 49 486 477
f 486 49 50
f 477 487 478
f 487 477 486
f 478 488 479
f 488 478 487
f 479 489 480
f 489 479 488
f 480 490 481
f 490 480 489
f 481 491 482
f 491 481 490
f 482 492 483
f 492 482 491
f 483 493 484
f 493 483 492
f 484 494 485
f 494 484 493
f 485 102 103
f 102 485 494
f 50 495 486
f 495 50 51
f 486 496 487
f 496 486 495
f 487 497 488
f 497 487 496
f 488 498 489
f 498 488 497
f 489 499 490
f 499 489 498
f 490 500 491
f 500 490 499
f 491 501 492
f 501 491 500
f 492 502 493
f 502 492 501
f 493 503 494
f 503 493 502
f 494 101 102
f 101 494 503
f 51 504 495
f 504 51 52
f 495 505 496
f 505 495 504
f 496 506 497
f 506 496 505
f 497 507 498
f 507 497 506
f 498 508 499
f 508 498 507
f 499 509 500
f 509 499 508
f 500 510 501
f 510 500 509
f 501 511 502
f 511 501 510
f 502 512 503
f 512 502 511
f 503 100 101
f 100 503 512
f 52 513 504
f 513 52 53
f 504 514 505
f 514 504 513
f 505 515 506
f 515 505 514
f 506 516 507
f 516 506 515
f 507 517 508
f 517 507 516
f 508 518 509
f 518 508 517
f 509 519 510
f 519 509 518
f 510 520 511
f 520 510 519
f 511 521 512
f 521 511 520
f 512 99 100
f 99 512 521
f 53 72 513
f 72 53 5
f 513 73 514
f 73 513 72
f 514 74 515
f 74 514 73
f 515 75 516
f 75 515 74
f 516 76 517
f 76 516 75
f 517 77 518
f 77 517 76
f 518 78 519
f 78 518 77
f 519 79 520
f 79 519 78
f 520 80 521
f 80 520 79
f 521 7 99
f 7 521 80
f 8 522 116
f 522 8 90
f 116 523 115
f 523 116 522
f 115 524 114
f 524 115 523
f 114 525 113
f 525 114 524
f 113 526 112
f 526 113 525
f 112 527 111
f 527 112 526
f 111 528 110
f 528 111 527
f 110 529 109
f 529 110 528
f 109 530 108
f 530 109 529
f 108 35 4
f 35 108 530
f 90 531 522
f 531 90 91
f 522 532 523
f 532 522 531
f 523 533 524
f 533 523 532
f 524 534 525
f 534 524 533
f 525 535 526
f 535 525 534
f 526 536 527
f 536 526 535
f 527 537 528
f 537 527 536
f 528 538 529
f 538 528 537
f 529 539 530
f 539 529 538
f 530 34 35
f 34 530 539
f 91 540 531
f 540 91 92
f 531 541 532
f 541 531 540
f 532 542 533
f 542 532 541
f 533 543 534
f 543 533 542
f 534 544 535
f 544 534 543
f 535 545 536
f 545 535 544
f 536 546 537
f 546 536 545
f 537 547 538
f 547 537 546
f 538 548 539
f 548 538 547
f 539 33 34
f 33 539 548
f 92 549 540
f 549 92 93
f 540 550 541
f 550 540 549
f 541 551 542
f 551 541 550
f 542 552 543
f 552 542 551
f 543 553 544
f 553 543 552
f 544 554 545
f 554 544 553
f 545 555 546
f 555 545 554
f 546 556 547
f 556 546 555
f 547 557 548
f 557 547 556
f 548 32 33
f 32 548 557
f 93 558 549
f 558 93 94
f 549 559 550
f 559 549 558
f 550 560 551
f 560 550 559
f 551 561 552
f 561 551 560
f 552 562 553
f 562 552 561
f 553 563 554
f 563 553 562
f 554 564 555
f 564 554 563
f 555 565 556
f 565 555 564
f 556 566 557
f 566 556 565
f 557 31 32
f 31 557 566
f 94 567 558
f 567 94 95
f 558 568 559
f 568 558 567
f 559 569 560
f 569 559 568
f 560 570 561
f 570 560 569
f 561 571 562
f 571 561 570
f 562 572 563
f 572 562 571
f 563 573 564
f 573 563 572
f 564 574 565
f 574 564 573
f 565 575 566
f 575 565 574
f 566 30 31
f 30 566 575
f 95 576 567
f 576 95 96
f 567 577 568
f 577 567 576
f 568 578 569
f 578 568 577
f 569 579 570
f 579 569 578
f 570 580 571
f 580 570 579
f 571 581 572
f 581 571 580
f 572 582 573
f 582 572 581
f 573 583 574
f 583 573 582
f 574 584 575
f 584 574 583
f 575 29 30
f 29 575 584
f 96 585 576
f 585 96 97
f 576 586 577
f 586 576 585
f 577 587 578
f 587 577 586
f 578 588 579
f 588 578 587
f 579 589 580
f 589 579 588
f 580 590 581
f 590 580 589
f 581 591 582
f 591 581 590
f 582 592 583
f 592 582 591
f 583 593 584
f 593 583 592
f 584 28 29
f 28 584 593
f 97 594 585
f 594 97 98
f 585 595 586
f 595 585 594
f 586 596 587
f 596 586 595
f 587 597 588
f 597 587 596
f 588 598 589
f 598 588 597
f 589 599 590
f 599 589 598
f 590 600 591
f 600 590 599
f 591 601 592
f 601 591 600
f 592 602 593
f 602 592 601
f 593 27 28
f 27 593 602
f 98 63 594
f 63 98 6
f 594 64 595
f 64 594 63
f 595 65 596
f 65 595 64
f 596 66 597
f 66 596 65
f 597 67 598
f 67 597 66
f 598 68 599
f 68 598 67
f 599 69 600
f 69 599 68
f 600 70 601
f 70 600 69
f 601 71 602
f 71 601 70
f 602 3 27
f 3 602 71
# faces: 1200
