# SPDX-License-Identifier: BSD-3-Clause
# Closed octagonal cylinder: X axis, radius 1, length 2, centered at the origin.
# 16 vertices and 28 triangles; outward winding, no smooth normals.
o cylinder_x_octagonal
v -1 1 0
v -1 0.707106781187 0.707106781187
v -1 0 1
v -1 -0.707106781187 0.707106781187
v -1 -1 0
v -1 -0.707106781187 -0.707106781187
v -1 0 -1
v -1 0.707106781187 -0.707106781187
v 1 1 0
v 1 0.707106781187 0.707106781187
v 1 0 1
v 1 -0.707106781187 0.707106781187
v 1 -1 0
v 1 -0.707106781187 -0.707106781187
v 1 0 -1
v 1 0.707106781187 -0.707106781187
f 1 2 10
f 1 10 9
f 2 3 11
f 2 11 10
f 3 4 12
f 3 12 11
f 4 5 13
f 4 13 12
f 5 6 14
f 5 14 13
f 6 7 15
f 6 15 14
f 7 8 16
f 7 16 15
f 8 1 9
f 8 9 16
f 1 3 2
f 9 10 11
f 1 4 3
f 9 11 12
f 1 5 4
f 9 12 13
f 1 6 5
f 9 13 14
f 1 7 6
f 9 14 15
f 1 8 7
f 9 15 16
