# Blender 3.4.1
# www.blender.org
o bottom.001
v 0.000050 0.0100 -0.020000
v 0.000050 0.0100 0.020000
v 0.000050 -0.0100 -0.020000
v 0.000050 -0.0100 0.020000
v -0.128983 0.0100 -0.020000
v -0.128983 -0.0100 -0.020000
v -0.128983 0.0100 0.020000
v -0.128983 -0.0100 0.020000
vn 1.0000 -0.0000 -0.0000
vn -0.0000 -0.0000 -1.0000
vn -1.0000 -0.0000 -0.0000
vn -0.0000 -0.0000 1.0000
vn -0.0000 -1.0000 -0.0000
vn -0.0000 1.0000 -0.0000
s 0
f 1//1 2//1 3//1
f 3//1 2//1 4//1
f 5//2 1//2 6//2
f 6//2 1//2 3//2
f 7//3 5//3 8//3
f 8//3 5//3 6//3
f 2//4 7//4 4//4
f 4//4 7//4 8//4
f 4//5 8//5 3//5
f 3//5 8//5 6//5
f 7//6 2//6 5//6
f 5//6 2//6 1//6
