# Blender 3.4.1
# www.blender.org
o drum
v 0.500000 -0.493180 -0.082297
v -0.500000 -0.493180 -0.082297
v 0.500000 -0.500000 -0.000000
v -0.500000 -0.500000 -0.000000
v 0.500000 -0.493180 0.082297
v -0.500000 -0.493180 0.082297
v 0.500000 -0.472908 0.162350
v -0.500000 -0.472908 0.162350
v 0.500000 -0.439737 0.237974
v -0.500000 -0.439737 0.237974
v 0.500000 -0.394570 0.307106
v -0.500000 -0.394570 0.307106
v 0.500000 -0.338641 0.367862
v -0.500000 -0.338641 0.367862
v 0.500000 -0.273474 0.418583
v -0.500000 -0.273474 0.418583
v 0.500000 -0.200847 0.457887
v -0.500000 -0.200847 0.457887
v 0.500000 -0.122742 0.484700
v -0.500000 -0.122742 0.484700
v 0.500000 -0.041289 0.498292
v -0.500000 -0.041289 0.498292
v 0.500000 0.041290 0.498292
v -0.500000 0.041290 0.498292
v 0.500000 0.122743 0.484700
v -0.500000 0.122743 0.484700
v 0.500000 0.200848 0.457887
v -0.500000 0.200848 0.457887
v 0.500000 0.273474 0.418583
v -0.500000 0.273474 0.418583
v 0.500000 0.338641 0.367862
v -0.500000 0.338641 0.367862
v 0.500000 0.394571 0.307106
v -0.500000 0.394571 0.307106
v 0.500000 0.439737 0.237974
v -0.500000 0.439737 0.237974
v 0.500000 0.472909 0.162350
v -0.500000 0.472909 0.162350
v 0.500000 0.493181 0.082297
v -0.500000 0.493181 0.082297
v 0.500000 0.500000 -0.000000
v -0.500000 0.500000 -0.000000
v 0.500000 0.493181 -0.082297
v -0.500000 0.493181 -0.082297
v 0.500000 0.472909 -0.162350
v -0.500000 0.472909 -0.162350
v 0.500000 0.439737 -0.237974
v -0.500000 0.439737 -0.237974
v 0.500000 0.394571 -0.307106
v -0.500000 0.394571 -0.307106
v 0.500000 0.338641 -0.367862
v -0.500000 0.338641 -0.367862
v 0.500000 0.273474 -0.418583
v -0.500000 0.273474 -0.418583
v 0.500000 0.200848 -0.457887
v -0.500000 0.200848 -0.457887
v 0.500000 0.122743 -0.484700
v -0.500000 0.122743 -0.484700
v 0.500000 0.041290 -0.498292
v -0.500000 0.041290 -0.498292
v 0.500000 -0.041289 -0.498292
v -0.500000 -0.041289 -0.498292
v 0.500000 -0.122742 -0.484700
v -0.500000 -0.122742 -0.484700
v 0.500000 -0.200847 -0.457887
v -0.500000 -0.200847 -0.457887
v 0.500000 -0.273474 -0.418583
v -0.500000 -0.273474 -0.418583
v 0.500000 -0.338641 -0.367862
v -0.500000 -0.338641 -0.367862
v 0.500000 -0.394570 -0.307106
v -0.500000 -0.394570 -0.307106
v 0.500000 -0.439737 -0.237974
v -0.500000 -0.439737 -0.237974
v 0.500000 -0.472908 -0.162350
v -0.500000 -0.472908 -0.162350
v 0.500000 -0.503044 0.083943
v -0.500000 -0.503044 0.083943
v 0.500000 -0.510000 -0.000000
v -0.500000 -0.510000 -0.000000
v 0.500000 -0.503044 -0.083943
v -0.500000 -0.503044 -0.083943
v 0.500000 -0.482367 -0.165597
v -0.500000 -0.482367 -0.165597
v 0.500000 -0.448531 -0.242733
v -0.500000 -0.448531 -0.242733
v 0.500000 -0.402461 -0.313249
v -0.500000 -0.402461 -0.313249
v 0.500000 -0.345413 -0.375219
v -0.500000 -0.345413 -0.375219
v 0.500000 -0.278943 -0.426955
v -0.500000 -0.278943 -0.426955
v 0.500000 -0.204864 -0.467045
v -0.500000 -0.204864 -0.467045
v 0.500000 -0.125197 -0.494394
v -0.500000 -0.125197 -0.494394
v 0.500000 -0.042115 -0.508258
v -0.500000 -0.042115 -0.508258
v 0.500000 0.042116 -0.508258
v -0.500000 0.042116 -0.508258
v 0.500000 0.125198 -0.494394
v -0.500000 0.125198 -0.494394
v 0.500000 0.204865 -0.467045
v -0.500000 0.204865 -0.467045
v 0.500000 0.278944 -0.426955
v -0.500000 0.278944 -0.426955
v 0.500000 0.345414 -0.375219
v -0.500000 0.345414 -0.375219
v 0.500000 0.402462 -0.313249
v -0.500000 0.402462 -0.313249
v 0.500000 0.448532 -0.242733
v -0.500000 0.448532 -0.242733
v 0.500000 0.482367 -0.165597
v -0.500000 0.482367 -0.165597
v 0.500000 0.503045 -0.083943
v -0.500000 0.503045 -0.083943
v 0.500000 0.510000 -0.000000
v -0.500000 0.510000 -0.000000
v 0.500000 0.503045 0.083943
v -0.500000 0.503045 0.083943
v 0.500000 0.482367 0.165597
v -0.500000 0.482367 0.165597
v 0.500000 0.448532 0.242733
v -0.500000 0.448532 0.242733
v 0.500000 0.402462 0.313248
v -0.500000 0.402462 0.313248
v 0.500000 0.345414 0.375219
v -0.500000 0.345414 0.375219
v 0.500000 0.278944 0.426955
v -0.500000 0.278944 0.426955
v 0.500000 0.204865 0.467044
v -0.500000 0.204865 0.467044
v 0.500000 0.125198 0.494394
v -0.500000 0.125198 0.494394
v 0.500000 0.042116 0.508258
v -0.500000 0.042116 0.508258
v 0.500000 -0.042115 0.508258
v -0.500000 -0.042115 0.508258
v 0.500000 -0.125197 0.494394
v -0.500000 -0.125197 0.494394
v 0.500000 -0.204864 0.467044
v -0.500000 -0.204864 0.467044
v 0.500000 -0.278943 0.426955
v -0.500000 -0.278943 0.426955
v 0.500000 -0.345413 0.375219
v -0.500000 -0.345413 0.375219
v 0.500000 -0.402461 0.313248
v -0.500000 -0.402461 0.313248
v 0.500000 -0.448531 0.242733
v -0.500000 -0.448531 0.242733
v 0.500000 -0.482367 0.165597
v -0.500000 -0.482367 0.165597
vn -0.0000 0.9966 0.0826
vn -0.0000 0.9966 -0.0826
vn -0.0000 0.9694 -0.2455
vn -0.0000 0.9158 -0.4017
vn -0.0000 0.8372 -0.5469
vn -0.0000 0.7357 -0.6773
vn -0.0000 0.6142 -0.7891
vn -0.0000 0.4759 -0.8795
vn -0.0000 0.3247 -0.9458
vn -0.0000 0.1646 -0.9864
vn -0.0000 -0.0000 -1.0000
vn -0.0000 -0.1646 -0.9864
vn -0.0000 -0.3247 -0.9458
vn -0.0000 -0.4759 -0.8795
vn -0.0000 -0.6142 -0.7891
vn -0.0000 -0.7357 -0.6773
vn -0.0000 -0.8372 -0.5469
vn -0.0000 -0.9158 -0.4017
vn -0.0000 -0.9694 -0.2455
vn -0.0000 -0.9966 -0.0826
vn -0.0000 -0.9966 0.0826
vn -0.0000 -0.9694 0.2455
vn -0.0000 -0.9158 0.4017
vn -0.0000 -0.8372 0.5469
vn -0.0000 -0.7357 0.6773
vn -0.0000 -0.6142 0.7891
vn -0.0000 -0.4759 0.8795
vn -0.0000 -0.3247 0.9458
vn -0.0000 -0.1646 0.9864
vn -0.0000 -0.0000 1.0000
vn -0.0000 0.1646 0.9864
vn -0.0000 0.3247 0.9458
vn -0.0000 0.4759 0.8795
vn -0.0000 0.6142 0.7891
vn -0.0000 0.7357 0.6773
vn -0.0000 0.8372 0.5469
vn -0.0000 0.9158 0.4017
vn -0.0000 0.9694 0.2455
vn 1.0000 -0.0000 -0.0000
vn -1.0000 -0.0000 -0.0000
s 0
f 1//1 2//1 3//1
f 3//1 2//1 4//1
f 3//2 4//2 5//2
f 5//2 4//2 6//2
f 5//3 6//3 7//3
f 7//3 6//3 8//3
f 7//4 8//4 9//4
f 9//4 8//4 10//4
f 9//5 10//5 11//5
f 11//5 10//5 12//5
f 11//6 12//6 13//6
f 13//6 12//6 14//6
f 13//7 14//7 15//7
f 15//7 14//7 16//7
f 15//8 16//8 17//8
f 17//8 16//8 18//8
f 17//9 18//9 19//9
f 19//9 18//9 20//9
f 19//10 20//10 21//10
f 21//10 20//10 22//10
f 21//11 22//11 23//11
f 23//11 22//11 24//11
f 23//12 24//12 25//12
f 25//12 24//12 26//12
f 25//13 26//13 27//13
f 27//13 26//13 28//13
f 27//14 28//14 29//14
f 29//14 28//14 30//14
f 29//15 30//15 31//15
f 31//15 30//15 32//15
f 31//16 32//16 33//16
f 33//16 32//16 34//16
f 33//17 34//17 35//17
f 35//17 34//17 36//17
f 35//18 36//18 37//18
f 37//18 36//18 38//18
f 37//19 38//19 39//19
f 39//19 38//19 40//19
f 39//20 40//20 41//20
f 41//20 40//20 42//20
f 41//21 42//21 43//21
f 43//21 42//21 44//21
f 43//22 44//22 45//22
f 45//22 44//22 46//22
f 45//23 46//23 47//23
f 47//23 46//23 48//23
f 47//24 48//24 49//24
f 49//24 48//24 50//24
f 49//25 50//25 51//25
f 51//25 50//25 52//25
f 51//26 52//26 53//26
f 53//26 52//26 54//26
f 53//27 54//27 55//27
f 55//27 54//27 56//27
f 55//28 56//28 57//28
f 57//28 56//28 58//28
f 57//29 58//29 59//29
f 59//29 58//29 60//29
f 59//30 60//30 61//30
f 61//30 60//30 62//30
f 61//31 62//31 63//31
f 63//31 62//31 64//31
f 63//32 64//32 65//32
f 65//32 64//32 66//32
f 65//33 66//33 67//33
f 67//33 66//33 68//33
f 67//34 68//34 69//34
f 69//34 68//34 70//34
f 69//35 70//35 71//35
f 71//35 70//35 72//35
f 71//36 72//36 73//36
f 73//36 72//36 74//36
f 73//37 74//37 75//37
f 75//37 74//37 76//37
f 75//38 76//38 1//38
f 1//38 76//38 2//38
f 77//21 78//21 79//21
f 79//21 78//21 80//21
f 79//20 80//20 81//20
f 81//20 80//20 82//20
f 81//19 82//19 83//19
f 83//19 82//19 84//19
f 83//18 84//18 85//18
f 85//18 84//18 86//18
f 85//17 86//17 87//17
f 87//17 86//17 88//17
f 87//16 88//16 89//16
f 89//16 88//16 90//16
f 89//15 90//15 91//15
f 91//15 90//15 92//15
f 91//14 92//14 93//14
f 93//14 92//14 94//14
f 93//13 94//13 95//13
f 95//13 94//13 96//13
f 95//12 96//12 97//12
f 97//12 96//12 98//12
f 97//11 98//11 99//11
f 99//11 98//11 100//11
f 99//10 100//10 101//10
f 101//10 100//10 102//10
f 101//9 102//9 103//9
f 103//9 102//9 104//9
f 103//8 104//8 105//8
f 105//8 104//8 106//8
f 105//7 106//7 107//7
f 107//7 106//7 108//7
f 107//6 108//6 109//6
f 109//6 108//6 110//6
f 109//5 110//5 111//5
f 111//5 110//5 112//5
f 111//4 112//4 113//4
f 113//4 112//4 114//4
f 113//3 114//3 115//3
f 115//3 114//3 116//3
f 115//2 116//2 117//2
f 117//2 116//2 118//2
f 117//1 118//1 119//1
f 119//1 118//1 120//1
f 119//38 120//38 121//38
f 121//38 120//38 122//38
f 121//37 122//37 123//37
f 123//37 122//37 124//37
f 123//36 124//36 125//36
f 125//36 124//36 126//36
f 125//35 126//35 127//35
f 127//35 126//35 128//35
f 127//34 128//34 129//34
f 129//34 128//34 130//34
f 129//33 130//33 131//33
f 131//33 130//33 132//33
f 131//32 132//32 133//32
f 133//32 132//32 134//32
f 133//31 134//31 135//31
f 135//31 134//31 136//31
f 135//30 136//30 137//30
f 137//30 136//30 138//30
f 137//29 138//29 139//29
f 139//29 138//29 140//29
f 139//28 140//28 141//28
f 141//28 140//28 142//28
f 141//27 142//27 143//27
f 143//27 142//27 144//27
f 143//26 144//26 145//26
f 145//26 144//26 146//26
f 145//25 146//25 147//25
f 147//25 146//25 148//25
f 147//24 148//24 149//24
f 149//24 148//24 150//24
f 149//23 150//23 151//23
f 151//23 150//23 152//23
f 151//22 152//22 77//22
f 77//22 152//22 78//22
f 1//39 3//39 79//39
f 79//39 3//39 5//39
f 79//39 5//39 77//39
f 77//39 5//39 7//39
f 77//39 7//39 151//39
f 151//39 7//39 9//39
f 151//39 9//39 149//39
f 149//39 9//39 11//39
f 149//39 11//39 147//39
f 147//39 11//39 13//39
f 147//39 13//39 145//39
f 145//39 13//39 15//39
f 145//39 15//39 143//39
f 143//39 15//39 17//39
f 143//39 17//39 141//39
f 141//39 17//39 19//39
f 141//39 19//39 139//39
f 139//39 19//39 21//39
f 139//39 21//39 137//39
f 137//39 21//39 23//39
f 137//39 23//39 135//39
f 135//39 23//39 133//39
f 133//39 23//39 25//39
f 133//39 25//39 131//39
f 131//39 25//39 27//39
f 131//39 27//39 129//39
f 129//39 27//39 29//39
f 129//39 29//39 127//39
f 127//39 29//39 31//39
f 127//39 31//39 125//39
f 125//39 31//39 33//39
f 125//39 33//39 123//39
f 123//39 33//39 35//39
f 123//39 35//39 121//39
f 121//39 35//39 37//39
f 121//39 37//39 119//39
f 119//39 37//39 39//39
f 119//39 39//39 117//39
f 117//39 39//39 41//39
f 117//39 41//39 43//39
f 117//39 43//39 115//39
f 115//39 43//39 45//39
f 115//39 45//39 113//39
f 113//39 45//39 47//39
f 113//39 47//39 111//39
f 111//39 47//39 49//39
f 111//39 49//39 109//39
f 109//39 49//39 51//39
f 109//39 51//39 107//39
f 107//39 51//39 53//39
f 107//39 53//39 105//39
f 105//39 53//39 55//39
f 105//39 55//39 103//39
f 103//39 55//39 57//39
f 103//39 57//39 101//39
f 101//39 57//39 59//39
f 101//39 59//39 99//39
f 99//39 59//39 61//39
f 99//39 61//39 97//39
f 97//39 61//39 95//39
f 95//39 61//39 63//39
f 95//39 63//39 93//39
f 93//39 63//39 65//39
f 93//39 65//39 91//39
f 91//39 65//39 67//39
f 91//39 67//39 89//39
f 89//39 67//39 69//39
f 89//39 69//39 87//39
f 87//39 69//39 71//39
f 87//39 71//39 85//39
f 85//39 71//39 73//39
f 85//39 73//39 83//39
f 83//39 73//39 75//39
f 83//39 75//39 81//39
f 81//39 75//39 1//39
f 81//39 1//39 79//39
f 6//40 4//40 80//40
f 80//40 4//40 2//40
f 80//40 2//40 82//40
f 82//40 2//40 76//40
f 82//40 76//40 84//40
f 84//40 76//40 74//40
f 84//40 74//40 86//40
f 86//40 74//40 72//40
f 86//40 72//40 88//40
f 88//40 72//40 70//40
f 88//40 70//40 90//40
f 90//40 70//40 68//40
f 90//40 68//40 92//40
f 92//40 68//40 66//40
f 92//40 66//40 94//40
f 94//40 66//40 64//40
f 94//40 64//40 96//40
f 96//40 64//40 62//40
f 96//40 62//40 98//40
f 98//40 62//40 60//40
f 98//40 60//40 100//40
f 100//40 60//40 102//40
f 102//40 60//40 58//40
f 102//40 58//40 104//40
f 104//40 58//40 56//40
f 104//40 56//40 106//40
f 106//40 56//40 54//40
f 106//40 54//40 108//40
f 108//40 54//40 52//40
f 108//40 52//40 110//40
f 110//40 52//40 50//40
f 110//40 50//40 112//40
f 112//40 50//40 48//40
f 112//40 48//40 114//40
f 114//40 48//40 46//40
f 114//40 46//40 116//40
f 116//40 46//40 44//40
f 116//40 44//40 118//40
f 118//40 44//40 42//40
f 118//40 42//40 40//40
f 118//40 40//40 120//40
f 120//40 40//40 38//40
f 120//40 38//40 122//40
f 122//40 38//40 36//40
f 122//40 36//40 124//40
f 124//40 36//40 34//40
f 124//40 34//40 126//40
f 126//40 34//40 32//40
f 126//40 32//40 128//40
f 128//40 32//40 30//40
f 128//40 30//40 130//40
f 130//40 30//40 28//40
f 130//40 28//40 132//40
f 132//40 28//40 26//40
f 132//40 26//40 134//40
f 134//40 26//40 24//40
f 134//40 24//40 136//40
f 136//40 24//40 22//40
f 136//40 22//40 138//40
f 138//40 22//40 140//40
f 140//40 22//40 20//40
f 140//40 20//40 142//40
f 142//40 20//40 18//40
f 142//40 18//40 144//40
f 144//40 18//40 16//40
f 144//40 16//40 146//40
f 146//40 16//40 14//40
f 146//40 14//40 148//40
f 148//40 14//40 12//40
f 148//40 12//40 150//40
f 150//40 12//40 10//40
f 150//40 10//40 152//40
f 152//40 10//40 8//40
f 152//40 8//40 78//40
f 78//40 8//40 6//40
f 78//40 6//40 80//40

