# Blender 3.4.1
# www.blender.org
g gateMobile
v 0.520000 0.050001 0.00000
v 0.500000 0.050001 0.0000
v 0.520000 0.050001 0.1400000
v 0.500000 0.050001 0.140000
v 0.520000 -0.049999 0.140000
v 0.500000 -0.049999 0.140000
v 0.520000 -0.049999 0.0000
v 0.500000 -0.049999 0.0000
vn -0.0000 1.0000 -0.0000
vn -0.0000 -1.0000 -0.0000
vn -0.0000 -0.0000 -1.0000
vn -1.0000 -0.0000 -0.0000
vn -0.0000 -0.0000 1.0000
vn 1.0000 -0.0000 -0.0000
s 0
f 1//1 2//1 3//1
f 3//1 2//1 4//1
f 5//2 6//2 7//2
f 7//2 6//2 8//2
f 8//3 2//3 7//3
f 7//3 2//3 1//3
f 6//4 4//4 8//4
f 8//4 4//4 2//4
f 5//5 3//5 6//5
f 6//5 3//5 4//5
f 7//6 1//6 5//6
f 5//6 1//6 3//6
