# Blender 3.4.1
# www.blender.org
o hopper
v -0.199999 -0.249999 1.000000
v 0.700001 -0.249999 1.247703
v -0.199999 0.250001 1.000000
v 0.700001 0.250001 1.217026
v 0.500001 -0.040038 0.500000
v 0.000001 -0.039999 0.500000
v 0.500001 0.039429 0.500000
v 0.000001 0.040001 0.500000
v 0.250001 -0.145009 0.750000
v 0.250001 0.144858 0.750000
vn -0.0000 0.9220 0.3872
vn 0.0001 0.9220 0.3872
vn -0.1042 0.9499 0.2946
vn -0.0742 0.9601 0.2696
vn -0.9660 -0.0000 0.2584
vn -0.9643 0.0162 0.2642
vn -0.0949 -0.9477 0.3048
vn -0.0011 -0.9218 0.3877
vn -0.0004 -0.9220 0.3871
vn -0.0677 -0.9574 0.2808
vn 0.9285 -0.0000 0.3714
s 0
f 1//1 9//1 6//1
f 9//2 5//2 6//2
f 9//3 2//3 5//3
f 2//4 9//4 1//4
f 5//5 2//5 7//5
f 2//6 4//6 7//6
f 4//7 10//7 7//7
f 10//8 8//8 7//8
f 10//9 3//9 8//9
f 3//10 10//10 4//10
f 6//11 8//11 1//11
f 8//11 3//11 1//11

